<svg width="25" height="25" viewBox="0 0 25 25" fill="none" xmlns="http://www.w3.org/2000/svg">
<g clip-path="url(#clip0_2176_772)">
<path d="M10.0504 4.4622C10.7387 4.30108 11.4435 4.22054 12.1504 4.2222C19.1504 4.2222 23.1504 12.2222 23.1504 12.2222C22.5434 13.3578 21.8194 14.4269 20.9904 15.4122M14.2704 14.3422C13.9957 14.6369 13.6645 14.8734 13.2965 15.0373C12.9285 15.2013 12.5313 15.2895 12.1285 15.2966C11.7257 15.3037 11.3256 15.2296 10.952 15.0787C10.5784 14.9278 10.2391 14.7032 9.95424 14.4184C9.66936 14.1335 9.44478 13.7941 9.2939 13.4206C9.14302 13.047 9.06892 12.6469 9.07602 12.2441C9.08313 11.8413 9.1713 11.444 9.33527 11.076C9.49923 10.708 9.73564 10.3768 10.0304 10.1022M18.0904 18.1622C16.381 19.4652 14.2995 20.1871 12.1504 20.2222C5.15039 20.2222 1.15039 12.2222 1.15039 12.2222C2.39428 9.90409 4.11953 7.8788 6.21039 6.2822L18.0904 18.1622Z" stroke="#F59245" stroke-width="2" stroke-linecap="round" stroke-linejoin="round"/>
<path d="M1.15039 1.2222L23.1504 23.2222" stroke="#F59245" stroke-width="2" stroke-linecap="round" stroke-linejoin="round"/>
</g>
<defs>
<clipPath id="clip0_2176_772">
<rect width="24" height="24" fill="white" transform="translate(0.150391 0.222198)"/>
</clipPath>
</defs>
</svg>
