<svg width="25" height="24" viewBox="0 0 25 24" fill="none" xmlns="http://www.w3.org/2000/svg">
<g clip-path="url(#clip0_3093_210)">
<path d="M21.7151 4.60999C21.2044 4.099 20.5979 3.69364 19.9305 3.41708C19.263 3.14052 18.5476 2.99817 17.8251 2.99817C17.1026 2.99817 16.3872 3.14052 15.7198 3.41708C15.0523 3.69364 14.4459 4.099 13.9351 4.60999L12.8751 5.66999L11.8151 4.60999C10.7834 3.5783 9.38415 2.9987 7.92512 2.9987C6.46609 2.9987 5.06681 3.5783 4.03512 4.60999C3.00343 5.64169 2.42383 7.04096 2.42383 8.49999C2.42383 9.95903 3.00343 11.3583 4.03512 12.39L5.09512 13.45L12.8751 21.23L20.6551 13.45L21.7151 12.39C22.2261 11.8792 22.6315 11.2728 22.908 10.6053C23.1846 9.93789 23.3269 9.22248 23.3269 8.49999C23.3269 7.77751 23.1846 7.0621 22.908 6.39464C22.6315 5.72718 22.2261 5.12075 21.7151 4.60999V4.60999Z" stroke="#7E808F" stroke-width="2" stroke-linecap="round" stroke-linejoin="round"/>
</g>
<defs>
<clipPath id="clip0_3093_210">
<rect width="24" height="24" fill="white" transform="translate(0.875)"/>
</clipPath>
</defs>
</svg>
